<svg xmlns="http://www.w3.org/2000/svg" xmlns:xlink="http://www.w3.org/1999/xlink" width="394" zoomAndPan="magnify" viewBox="0 0 295.5 341.999987" height="456" preserveAspectRatio="xMidYMid meet" version="1.0"><defs><clipPath id="c95e942dce"><path d="M 0 0.289062 L 295 0.289062 L 295 341.710938 L 0 341.710938 Z M 0 0.289062 " clip-rule="nonzero"/></clipPath><clipPath id="15d93c797e"><path d="M 12 0.289062 L 200 0.289062 L 200 291 L 12 291 Z M 12 0.289062 " clip-rule="nonzero"/></clipPath><clipPath id="0a75c06764"><path d="M 8 55 L 281.578125 55 L 281.578125 333 L 8 333 Z M 8 55 " clip-rule="nonzero"/></clipPath><clipPath id="60b7befb37"><path d="M 140 122 L 294 122 L 294 134 L 140 134 Z M 140 122 " clip-rule="nonzero"/></clipPath><clipPath id="292b1a0b56"><path d="M 171.898438 122.691406 L 294.4375 174.132812 L 263.179688 248.589844 L 140.640625 197.144531 Z M 171.898438 122.691406 " clip-rule="nonzero"/></clipPath><clipPath id="6ce15b3403"><path d="M 154.421875 -139.496094 L 413.464844 -30.746094 L 281.273438 284.136719 L 22.230469 175.386719 Z M 154.421875 -139.496094 " clip-rule="nonzero"/></clipPath><clipPath id="8d4ccc9ee6"><path d="M 140 122 L 295 122 L 295 189 L 140 189 Z M 140 122 " clip-rule="nonzero"/></clipPath><clipPath id="634980f99c"><path d="M 171.898438 122.691406 L 294.4375 174.132812 L 263.179688 248.589844 L 140.640625 197.144531 Z M 171.898438 122.691406 " clip-rule="nonzero"/></clipPath><clipPath id="9331d86999"><path d="M 154.421875 -139.496094 L 413.464844 -30.746094 L 281.273438 284.136719 L 22.230469 175.386719 Z M 154.421875 -139.496094 " clip-rule="nonzero"/></clipPath></defs><g clip-path="url(#c95e942dce)"><path fill="#ffffff" d="M 0 0.289062 L 295.5 0.289062 L 295.5 349.039062 L 0 349.039062 Z M 0 0.289062 " fill-opacity="1" fill-rule="nonzero"/><path fill="#ffffff" d="M 0 0.289062 L 295.5 0.289062 L 295.5 342.289062 L 0 342.289062 Z M 0 0.289062 " fill-opacity="1" fill-rule="nonzero"/></g><g clip-path="url(#15d93c797e)"><path fill="#56aeff" d="M 199.773438 115.144531 L 166.609375 132.140625 L 142.828125 66.945312 L 118.539062 0.363281 L 94.25 66.945312 L 12.550781 290.929688 C 29.304688 268.847656 58.300781 239.542969 90.96875 209.117188 L 118.539062 133.53125 L 132.949219 173.035156 C 155.707031 152.746094 178.84375 132.832031 199.773438 115.144531 " fill-opacity="1" fill-rule="nonzero"/></g><g clip-path="url(#0a75c06764)"><path fill="#051d40" d="M 75.855469 284.890625 C 70.777344 274.574219 99.625 248.289062 136.722656 209.46875 C 170.074219 174.5625 219.074219 125.121094 281.550781 55.535156 C 281.597656 55.484375 281.539062 55.398438 281.484375 55.441406 C 274.144531 61.316406 192.148438 127.09375 119.933594 192.734375 C 56.503906 250.390625 0.621094 307.933594 9.507812 324.679688 C 17.121094 339.03125 88.546875 341.6875 207.199219 244.285156 C 207.265625 244.234375 207.207031 244.125 207.132812 244.164062 C 198.300781 248.554688 85.378906 304.230469 75.855469 284.890625 " fill-opacity="1" fill-rule="nonzero"/></g><g clip-path="url(#60b7befb37)"><g clip-path="url(#292b1a0b56)"><g clip-path="url(#6ce15b3403)"><path fill="#56aeff" d="M 293.578125 43.492188 L 256.421875 46.324219 L 259.730469 -22.992188 L 263.109375 -93.789062 L 214.9375 -41.796875 L 52.910156 133.101562 C 76.902344 119.226562 114.980469 103.429688 156.878906 88.019531 L 211.558594 29 L 209.554688 71.003906 C 238.390625 61.101562 267.433594 51.695312 293.578125 43.492188 " fill-opacity="1" fill-rule="nonzero"/></g></g></g><g clip-path="url(#8d4ccc9ee6)"><g clip-path="url(#634980f99c)"><g clip-path="url(#9331d86999)"><path fill="#051d40" d="M 113.617188 152.039062 C 112.925781 140.558594 149.703125 127.488281 198.929688 106.054688 C 243.195312 86.78125 307.511719 60.160156 392.054688 20.179688 C 392.117188 20.152344 392.097656 20.054688 392.03125 20.070312 C 382.988281 22.644531 281.921875 51.558594 189.929688 84.125 C 109.128906 112.734375 35.324219 144.160156 37.035156 163.042969 C 38.5 179.222656 103.332031 209.320312 250.4375 165.4375 C 250.519531 165.414062 250.507812 165.296875 250.421875 165.300781 C 240.582031 165.933594 114.910156 173.558594 113.617188 152.039062 " fill-opacity="1" fill-rule="nonzero"/></g></g></g></svg>